<!-- Generated by IcoMoon.io -->
<svg version="1.1" xmlns="http://www.w3.org/2000/svg" width="20" height="20" viewBox="0 0 1440 320">
<title>chat</title>
<path fill="#0099ff" fill-opacity="1" d="M0,224L24,208C48,192,96,160,144,165.3C192,171,240,213,288,197.3C336,181,384,107,432,106.7C480,107,528,181,576,208C624,235,672,213,720,202.7C768,192,816,192,864,176C912,160,960,128,1008,138.7C1056,149,1104,203,1152,202.7C1200,203,1248,149,1296,138.7C1344,128,1392,160,1416,176L1440,192L1440,320L1416,320C1392,320,1344,320,1296,320C1248,320,1200,320,1152,320C1104,320,1056,320,1008,320C960,320,912,320,864,320C816,320,768,320,720,320C672,320,624,320,576,320C528,320,480,320,432,320C384,320,336,320,288,320C240,320,192,320,144,320C96,320,48,320,24,320L0,320Z"></path>
 
</svg>
