<?xml version="1.0" encoding="UTF-8"?>
<!DOCTYPE svg PUBLIC "-//W3C//DTD SVG 1.1//EN" "http://www.w3.org/Graphics/SVG/1.1/DTD/svg11.dtd">
<!-- Creator: CorelDRAW X8 -->
<svg xmlns="http://www.w3.org/2000/svg" xml:space="preserve" width="343px" height="390px" version="1.1" style="shape-rendering:geometricPrecision; text-rendering:geometricPrecision; image-rendering:optimizeQuality; fill-rule:evenodd; clip-rule:evenodd"
viewBox="0 0 343 390"
 xmlns:xlink="http://www.w3.org/1999/xlink">
 <defs>
  <style type="text/css">
   <![CDATA[
    .fil0 {fill:#2B2A29;fill-rule:nonzero}
   ]]>
  </style>
 </defs>
 <g id="Layer_x0020_1">
  <metadata id="CorelCorpID_0Corel-Layer"/>
  <path class="fil0" d="M0 2l35 0c12,0 20,5 25,16 3,7 5,17 5,30l0 51c0,16 -3,28 -9,36 -5,7 -12,10 -21,10l-35 0 0 -3 6 0 0 -137 -6 0 0 -3zm29 3l0 137 6 0c4,0 6,-2 6,-7l0 -124c0,-1 0,-3 -1,-4 -2,-1 -3,-2 -5,-2l-6 0zm47 37l25 0 0 100 5 0 0 3 -30 0 0 -3 5 0 0 -97 -5 0 0 -3zm15 -21c-3,0 -6,-1 -8,-3 -3,-2 -4,-4 -4,-7 0,-3 1,-6 4,-8 2,-2 5,-3 8,-3 3,0 6,1 8,3 3,2 4,5 4,8 0,2 -1,5 -4,7 -2,2 -5,3 -8,3zm41 124l-14 -100 -4 0 0 -3 28 0 0 3 -4 0 9 64 9 -59c1,-3 -2,-5 -6,-5l0 -3 17 0 0 3c-4,0 -7,2 -7,6l-14 94 -14 0zm40 -103l25 0 0 100 5 0 0 3 -30 0 0 -3 5 0 0 -97 -5 0 0 -3zm15 -21c-3,0 -6,-1 -8,-3 -3,-2 -4,-4 -4,-7 0,-3 1,-6 4,-8 2,-2 5,-3 8,-3 3,0 6,1 8,3 3,2 4,5 4,8 0,2 -1,5 -4,7 -2,2 -5,3 -8,3zm32 121l0 -97 -6 0 0 -3 25 0 0 5c2,-2 4,-4 6,-5 3,-1 6,-2 9,-2 5,0 9,2 12,5 3,4 5,8 5,12l0 85 3 0 0 3 -27 0 0 -3 4 0 0 -91c0,-2 -1,-4 -5,-4 -3,0 -5,2 -7,7l0 88 4 0 0 3 -30 0 0 -3 7 0zm104 -96c3,4 6,10 8,17 2,8 3,14 3,21 0,12 -3,22 -8,31 -5,8 -11,12 -18,12 -4,0 -8,-1 -11,-3 -2,1 -4,2 -6,3 -1,1 -2,2 -2,4 0,1 0,3 2,3 1,1 3,1 5,1l17 0c6,0 12,2 17,6 4,4 7,9 7,16 0,7 -4,11 -10,14 -5,2 -12,3 -21,3 -7,0 -13,-1 -18,-3 -5,-2 -8,-5 -8,-9 0,-3 1,-5 2,-6 1,-2 3,-4 5,-5 -4,-3 -5,-8 -5,-14 0,-3 1,-6 4,-9 2,-3 6,-5 9,-6 -3,-3 -6,-8 -9,-16 -2,-7 -3,-15 -3,-22 0,-12 2,-23 7,-31 5,-9 11,-13 18,-13 3,0 5,0 8,1 2,1 4,1 5,2 2,-2 4,-4 6,-5 2,-2 5,-3 7,-3 3,0 5,1 7,4 1,2 2,4 2,6 0,3 -1,5 -2,6 -1,2 -2,3 -5,3 -2,0 -3,-1 -4,-2 -1,-2 -1,-4 -1,-6l0 -3c-1,-1 -2,-2 -3,-2 -1,0 -3,2 -5,5zm-4 106l-29 0c-3,2 -5,4 -5,7 0,3 3,5 7,7 5,2 10,3 16,3 6,0 12,-1 17,-2 5,-2 8,-4 8,-7 0,-3 -2,-5 -4,-6 -3,-1 -6,-2 -10,-2zm-5 -33l0 -70c0,-2 0,-3 -1,-4 -2,-1 -3,-2 -5,-2 -4,0 -6,2 -6,6l0 70c0,1 1,2 2,3 1,2 3,2 4,2 4,0 6,-2 6,-5zm-314 128l39 0c8,0 15,4 19,13 4,6 6,14 6,22 0,8 -2,15 -5,21 -4,6 -9,10 -16,13 8,2 13,7 17,14 4,7 5,14 5,22 0,10 -2,19 -8,26 -6,8 -14,12 -24,12l-33 0 0 -3 7 0 0 -137 -7 0 0 -3zm29 3l0 64 3 0c3,0 5,-1 7,-2 2,-1 3,-3 3,-6l0 -48c0,-2 -1,-4 -3,-5 -2,-2 -4,-3 -7,-3l-3 0zm0 68l0 69 4 0c6,0 9,-2 9,-8l0 -53c0,-2 -1,-4 -3,-6 -2,-1 -4,-2 -7,-2l-3 0zm46 -71l60 0 0 55 -3 0c-2,-18 -4,-31 -7,-39 -3,-8 -7,-13 -10,-13l-11 0 0 67c4,0 8,-4 10,-11 2,-6 4,-15 4,-24l3 0 0 72 -3 0c0,-10 -1,-18 -4,-24 -2,-6 -5,-10 -10,-10l0 67 7 0c6,0 11,-6 15,-17 4,-11 6,-25 6,-39l3 0 0 59 -60 0 0 -3 6 0 0 -137 -6 0 0 -3zm75 0l35 0 0 3 -6 0 0 137 6 0c6,0 11,-6 15,-17 4,-12 6,-25 6,-40l3 0 0 60 -59 0 0 -3 6 0 0 -137 -6 0 0 -3zm67 0l35 0 0 3 -6 0 0 137 6 0c6,0 11,-6 15,-17 4,-12 6,-25 6,-40l3 0 0 60 -59 0 0 -3 6 0 0 -137 -6 0 0 -3z"/>
 </g>
</svg>
