<?xml version="1.0" encoding="UTF-8"?>
<!DOCTYPE svg PUBLIC "-//W3C//DTD SVG 1.1//EN" "http://www.w3.org/Graphics/SVG/1.1/DTD/svg11.dtd">
<!-- Creator: CorelDRAW X8 -->
<svg xmlns="http://www.w3.org/2000/svg" xml:space="preserve" width="40mm" height="57mm" version="1.1" style="shape-rendering:geometricPrecision; text-rendering:geometricPrecision; image-rendering:optimizeQuality; fill-rule:evenodd; clip-rule:evenodd"
viewBox="0 0 4000 5700"
 xmlns:xlink="http://www.w3.org/1999/xlink">
 <defs>
  <style type="text/css">
   <![CDATA[
    .fil0 {fill:#010101}
   ]]>
  </style>
 </defs>


     <linearGradient id="grad1" x1="0%" y1="0%" x2="100%" y2="0%">
       <stop offset="0%" style="stop-color:rgb(255,255,0);stop-opacity:1" />
       <stop offset="100%" style="stop-color:rgb(255,0,0);stop-opacity:1" />
     </linearGradient>


 <g id="Layer_x0020_1">
  <metadata id="CorelCorpID_0Corel-Layer"/>
  <g id="_2250357887520">
   <path class="fil0" d="M334 3601c14,133 19,250 40,379 20,126 47,229 80,337 195,629 641,950 1279,1034 260,34 423,16 678,-10 -4,89 -41,160 -85,215 -61,77 -83,76 -215,76 -650,-1 -1253,-184 -1636,-695 -186,-248 -286,-497 -352,-810 -17,-78 -71,-453 -46,-521l257 -5zm537 1638c43,-25 90,-43 83,-119 -5,-49 -46,-88 -105,-87 -87,3 -160,126 -25,199l12 7c-72,-15 -65,-42 -97,-91 -10,158 252,133 226,1 -25,61 -29,71 -94,90zm56 -187c0,1 2,2 2,2l-2 -2zm-761 -782c-11,11 5,-5 0,0zm300 640c-8,8 5,-5 0,0zm2683 339c-88,0 -95,-158 8,-155 80,2 109,116 23,151l-31 4zm36 -26c-65,1 -28,2 -71,-8 -15,-36 -4,-4 -4,-32 -20,3 -9,0 -19,5 10,32 31,54 74,50 45,-5 40,-28 63,-57 -19,7 -12,5 -25,18 -8,9 -11,15 -18,24zm-2336 -163c115,0 95,155 1,151 -92,-3 -95,-151 -1,-151zm69 82c-21,19 -27,48 -67,45 -21,-2 -56,-24 -59,-39 -1,-3 -3,-4 -5,-6 14,84 121,82 131,0zm2609 -1225c-1,95 -31,236 -49,318 -22,100 -56,190 -94,274 -30,66 -93,177 -137,230l-87 101 -319 229c-426,205 -1144,225 -1551,30 -195,-94 -282,-156 -430,-306 -219,-222 -402,-621 -406,-1065l112 1c0,204 65,435 135,591 71,159 169,292 288,405 389,374 1096,446 1594,301 281,-83 466,-211 623,-456 52,-81 147,-305 155,-368 0,-3 2,-4 3,-6 -7,83 -71,237 -103,301 -85,170 -214,309 -377,410 -121,75 -171,79 -258,120l-11 6c91,-4 288,-121 345,-161 100,-72 176,-149 246,-250 143,-207 189,-414 219,-654l10 -113c19,56 -27,283 -38,341 -48,234 -141,408 -294,579 -45,50 -135,102 -149,133 77,-28 206,-174 257,-239 112,-141 138,-276 170,-329 -17,119 -141,325 -221,415 -21,24 -85,86 -94,111 70,-30 224,-250 269,-346 85,-184 94,-265 132,-442l6 -22c0,-4 1,-5 2,-7 0,84 -47,251 -73,332 -68,206 -158,336 -302,485 -94,97 -199,137 -225,168 81,-13 230,-156 285,-211l60 -67c207,-251 305,-673 315,-1025l-8 186zm-652 1117c-26,4 -34,10 -57,22l-156 69c-1,-2 -5,2 -7,3 56,-5 125,-41 173,-63l47 -31zm321 -286c0,-1 -1,-2 -2,-2 -5,5 2,2 2,2 0,0 0,0 0,0zm-130 118c-29,7 -8,-5 -48,29l-134 89c-63,37 -134,66 -199,92 -25,10 -112,32 -134,48 45,-22 106,-28 147,-44 119,-46 253,-108 348,-192l20 -22zm-112 42c-32,4 -135,74 -205,104 -44,19 -151,64 -217,79 98,-7 374,-131 422,-183zm61 -67c0,0 -1,-2 -1,-1 -7,6 2,2 2,2 0,0 -1,0 -1,-1zm-518 224c22,0 101,-18 118,-32l-95 26c-7,2 -18,5 -23,6zm-1627 -274c-7,7 3,-4 0,0zm1682 367c41,-3 81,-18 101,-32l-101 32zm106 -740c-99,8 -165,-53 -201,-120 -43,-79 -37,-204 19,-241 -24,38 -32,57 -33,116 -5,222 213,244 215,245zm22 -112c43,-60 63,-115 59,-211 -6,-134 -67,-145 -89,-187 85,0 133,-3 180,45 134,134 17,346 -8,349l-7 -10c45,-32 44,-79 56,-144 -30,15 -2,40 -47,112 -21,35 -14,40 -26,24 35,-33 42,-82 43,-140l-14 41c-9,31 -40,113 -48,108l-7 -9c31,-32 44,-79 41,-138 -15,29 -14,51 -24,78 -4,12 -30,77 -41,61 23,-34 44,-78 38,-138 -12,26 -11,40 -21,70 -29,86 -31,56 -36,49 23,-27 38,-89 28,-119 -36,85 -7,89 -77,159zm32 -142c0,44 -37,117 -70,136 -95,52 -162,-117 -132,-252 43,-194 202,-114 202,39l0 77zm960 -623c267,0 259,-57 258,111 0,122 -13,244 -24,359 -14,140 -96,526 -156,604 -35,-8 -60,-22 -82,-46 -33,-36 -58,-87 -75,-137 -24,-67 -25,-71 -9,-134 62,-233 85,-509 88,-757zm-1613 930c-147,202 -367,346 -664,407 -88,18 -113,-12 -174,-51 -376,-244 -588,-613 -595,-1107 145,-81 65,-79 209,-37 78,23 166,38 257,51 291,42 832,64 1126,42 49,232 -24,509 -159,695zm-1380 -775c-4,4 4,-4 0,0zm1376 762c-2,3 0,-1 0,0zm129 -826l392 -12c-66,25 -649,19 -755,36 155,36 1073,-17 1158,-64 -74,1 -141,15 -174,3 43,-4 123,-2 161,-20 -194,0 -393,26 -589,26l-581 20c42,17 326,16 388,11zm-1421 -108c106,33 329,35 457,49l478 19c174,0 890,4 1071,-19 127,-17 340,-15 448,-48l1 44c-129,61 -592,133 -775,124 27,-11 238,-25 286,-32 78,-12 185,-24 255,-48 -60,-8 -206,24 -273,30 -102,9 -181,13 -276,24 -88,11 -547,15 -574,28 68,29 449,0 554,0l0 6c-430,22 -1036,25 -1454,-58 -42,-8 -66,-14 -103,-25 -36,-11 -62,-22 -95,-31l0 -63zm-34 -232c8,31 10,31 48,39 235,52 954,61 1214,61 115,0 229,-4 343,-4 200,0 453,-14 652,-27l287 -37c-4,-18 0,-22 5,-30l68 25c-130,84 -1110,103 -1355,103 -341,0 -946,-10 -1292,-81 -43,-8 -48,-9 -60,-30 37,-7 46,-16 90,-19zm-43 -144c33,3 42,5 64,44 -71,22 -105,5 -166,-36 8,-14 16,-21 26,-32 38,21 25,18 76,24zm747 -294l11 5 7 8c20,10 42,21 53,37l-2 -4 93 40c31,11 49,13 60,31 1,1 2,10 3,12 -1,-19 -1,-4 7,-17l77 21 41 8 73 7c43,1 233,-2 259,-13 38,-16 232,-82 252,-102 0,-1 2,-3 2,-4 6,-5 2,-2 12,-9l53 -35c62,-46 69,-73 79,-59 -69,65 -92,97 -180,146 -32,19 -36,31 -113,67 -144,68 -278,84 -443,78l-35 -1c-71,-9 -127,-18 -199,-32 -33,-6 -13,-1 -20,-14 -26,3 -31,3 -54,-5 -37,-11 -21,-3 -28,-15l-25 -2 -1 -6c-42,-6 -11,4 -35,-13 -30,-21 -15,2 -57,-23 -1,-1 -4,-1 -5,-4 -1,-3 -3,-2 -5,-4 -19,0 -3,5 -22,-3 -17,-7 -5,-2 -12,-14 -22,-5 -24,-5 -39,-18l-12 -7 -10 0 -18 -15 -130 -85c-15,-14 1,-20 -21,-9 13,30 11,92 9,120 -1,17 -21,154 -35,110 58,-89 11,-252 -31,-324 -89,-155 -211,-104 -219,-184l0 -3c-1,-1 14,8 -2,-2 -36,-22 -30,-17 -67,-70 -60,-87 -62,-78 -47,-139 64,-269 -2,-969 -203,-1012 14,-103 89,-261 129,-341 25,-49 56,-100 86,-146 8,-13 11,-20 24,-36l22 -24c1,0 3,-2 3,-2 13,-11 -1,3 12,-22 38,-72 166,-179 180,-198 48,-60 200,-152 200,-153l103 -72c4,-12 10,4 10,1 1,-2 2,5 4,7 -17,15 -54,240 -52,304 2,97 76,197 123,253 140,171 272,163 522,223 250,61 589,187 750,381l118 164c30,54 35,53 24,63 -27,-74 -100,-166 -139,-212 -43,-51 -115,-109 -189,-155 -231,-143 -552,-185 -828,-49 -213,104 -436,334 -475,552 -224,0 -311,-32 -311,110 0,130 -23,304 47,374 42,43 183,18 254,20 10,70 45,118 63,176 13,41 -1,10 19,33 25,28 40,75 53,88 1,0 3,2 4,2 0,1 2,3 3,4 26,26 33,50 96,109l124 103zm1836 5c0,51 -35,103 -67,120 -101,52 -196,-62 -159,-167 50,-144 226,-81 226,47zm-16 25c26,-171 -184,-193 -206,-50 -25,168 181,205 206,50zm-413 -43c0,-99 64,-224 150,-270 29,-16 27,-5 32,-3 -108,24 -212,244 -147,405l-35 -132zm-2366 71c27,15 31,20 40,51 12,43 15,45 -12,63 -21,-45 -15,-77 -28,-114zm2716 -277c297,-83 414,383 109,457 -222,54 -374,-204 -250,-367 38,-50 71,-70 141,-90zm227 103c21,49 25,51 29,118 -3,-20 -10,-39 -17,-62 -5,-14 -6,-19 -14,-29 -15,-18 -5,-7 -21,-17 15,41 30,58 28,111 -23,-46 -7,-71 -49,-102 13,41 25,66 23,111 -8,-22 -9,-33 -15,-52 -11,-35 -1,-23 -24,-38l13 89c-15,-33 -7,-54 -36,-77 8,42 16,40 8,84l-21 -76c-18,32 11,39 -8,81 -9,-45 -4,-37 -22,-66 -28,-46 -42,-97 -121,-112 -215,-39 -225,370 67,385 240,13 279,-305 180,-348zm68 231c25,-16 48,-17 69,-41 26,-30 17,-45 31,-80 6,90 -62,145 -100,121zm-317 -92c-27,17 -6,10 -39,17 -14,-20 -12,-13 -15,-45 1,-1 24,-15 27,-17 17,14 22,10 27,45zm-27 -32c6,2 15,-8 -7,-2 -8,2 7,2 7,2zm-2456 47c-3,-14 -4,-9 11,-7l2 -11c5,-12 1,-10 13,-3 0,-18 -4,-15 13,-9l9 -8c6,-9 -28,-20 28,-12 10,2 61,26 22,69 -74,82 -69,57 -66,58 21,91 -1,36 47,110 0,1 1,3 2,4 0,0 1,3 2,3 14,21 41,31 48,36 0,137 -98,-22 -163,-49 -30,-13 -109,67 -121,75 -148,-54 65,-97 7,-203 -26,-50 -117,-97 -69,-132 46,-19 77,40 103,64 48,44 60,27 112,15zm-145 -110c-15,-4 -1,2 -20,-6 -14,-6 -6,-4 -16,-13l36 -32 0 51zm877 -61c12,9 0,0 17,8l95 59c243,154 588,166 828,-1 16,-11 54,-42 74,-44l19 4c1,-2 4,1 5,2l-220 122c-192,80 -412,71 -603,-5 -80,-32 -228,-133 -226,-134l11 -11zm639 4c26,4 33,13 67,14 -98,52 -359,30 -457,-32 30,0 20,4 49,3 110,-3 -7,-11 114,11 127,23 198,-1 227,4zm-519 -62c128,80 227,131 394,136 159,4 278,-55 403,-128 17,27 27,28 43,51 -117,69 -254,148 -446,144 -186,-4 -303,-57 -448,-146l54 -57zm764 35c-3,4 4,-3 0,0zm-685 28c-3,2 15,-12 0,0zm-441 -806c7,-75 88,-212 125,-260 347,-448 985,-401 1276,-7 234,317 48,341 230,341 57,-1 128,2 172,-14l-2 263c-73,19 -166,10 -247,10 -24,226 -157,346 -198,420 0,-1 0,-4 0,-4l0 -17c1,-2 3,-13 6,-20 7,-14 19,-25 28,-38 115,-160 159,-335 147,-538 -6,-92 -44,-172 -52,-223 -26,43 67,160 10,429 -35,160 -86,218 -158,334l-48 -53c135,-167 185,-402 106,-628 -12,-34 -27,-67 -42,-95 -18,-34 -31,-50 -49,-79 29,-49 113,-73 25,-161 -84,-83 -103,-15 -161,24 -283,-188 -535,-180 -816,6 -60,-27 -71,-112 -166,-17 -78,79 3,104 37,156 -180,272 -165,518 9,785 -17,26 -37,39 -58,67 -27,-30 -52,-61 -79,-101 -24,-37 -39,-76 -67,-109 12,46 45,105 68,143 17,28 29,44 45,65 27,34 34,63 36,58 1,-1 5,4 5,7l-96 -112c-134,-208 -30,-242 -171,-240 -303,5 -267,15 -267,-136 1,-52 -6,-159 1,-204 13,-90 187,-32 351,-52zm1393 685l-3 -3c-1,1 3,3 3,3zm-1268 -15c-8,8 8,-8 0,0zm318 -1049c0,0 2,-3 -3,-1 -2,1 2,1 3,1zm891 229c-7,7 3,-3 0,0zm139 56c5,0 -5,-25 -4,0 0,33 4,0 4,0zm-2082 905c0,-27 65,-51 111,-77 50,-28 123,-81 187,-32 -20,14 -56,30 -80,43 -30,15 -54,26 -81,40 0,47 -4,89 9,123 -27,16 -36,33 -63,48 -75,-57 -83,-35 -83,-145zm1973 -538c14,-168 -30,-172 -14,-313 88,159 64,456 -50,599l64 -286zm319 85c44,1 83,4 120,-8 0,45 7,110 -7,145 -43,18 -108,12 -158,0l-4 -51c26,-20 -20,-1 5,-1 41,1 -30,15 8,1l18 -14 18 -72zm-1498 124c-58,-126 -84,-312 -33,-451l8 -18c1,-4 2,-4 3,-6 0,44 8,54 10,87 1,35 -10,51 -10,85 0,146 6,83 22,191 4,27 -5,68 0,112zm2527 -525c0,75 -30,224 -46,296 -21,98 -49,175 -94,247 -182,294 -272,-533 -85,-955 131,-295 225,0 225,199l0 213zm-1047 16c-1,2 -2,5 -3,6l-17 -30c0,0 -20,14 -5,-18 71,14 92,14 163,-2 0,125 15,114 -120,114l0 -55c-2,2 -3,5 -3,7l-15 -22zm99 -72l-16 -29c31,7 38,4 55,26 -19,8 -33,12 -55,17l12 -10c0,-1 3,-3 4,-4zm-124 -12c19,-10 29,-12 53,-16 -8,5 -18,13 -25,19 16,22 -2,5 22,20 -31,-2 -34,-1 -50,-23zm-1356 897c-83,-2 -130,-84 -39,-140 17,-10 15,5 21,-22 10,-48 -112,-144 -42,-255 21,-32 58,-99 100,-77 -4,39 -31,37 -63,77 -64,80 23,220 95,285 129,116 256,103 355,-48l-170 -171c-45,-47 -124,-134 -172,-170 -20,15 -33,43 -51,25 -19,-19 10,-32 24,-51 -32,-52 -121,-100 -146,-169 -34,-90 25,-189 61,-241 -25,-33 -66,-51 -77,-102 17,-33 37,-66 86,-69 50,19 47,48 81,76 76,-14 133,-83 238,-34 33,15 125,114 153,145 59,-43 107,-119 174,-159 87,-52 185,0 256,40 39,-29 44,-72 103,-77 32,10 64,40 69,78 -13,39 -54,63 -77,94 38,56 94,165 39,252 -18,28 -141,149 -168,167 22,27 5,20 20,29 36,23 92,79 113,110 64,98 -13,210 -21,244l70 74c20,27 6,-5 16,28 0,4 -65,160 -173,-7 -139,99 -229,114 -342,-3l-79 -82c-76,63 -120,167 -274,119 -45,-14 -58,-30 -96,-44l-84 78zm228 -1156c170,-72 423,-73 543,20 -37,-11 -46,-8 -85,-8 -72,-1 -76,-28 -232,-26 -50,0 -107,13 -146,25 -97,29 -69,12 -148,26l68 -37zm1720 -14c6,-51 62,-171 99,-200 30,-24 -5,3 55,-21 -44,66 -30,24 -80,124l-57 141c21,-124 97,-228 103,-249 -67,41 -100,177 -120,205zm-2891 8c-40,-117 -46,-118 -114,-221 20,4 15,3 25,2l20 -8c14,32 100,138 110,246l-15 -36c-19,-52 -65,-172 -114,-195 5,16 91,143 104,247l-16 -35zm-44 -30c-15,-80 -62,-132 -104,-191 48,13 75,92 95,136 33,72 12,47 9,55zm-334 627c-104,-465 3,-1044 177,-697 104,206 114,474 114,706 0,95 -41,375 -147,318 -68,-38 -124,-236 -144,-327zm35 -765c-2,1 5,-3 0,0zm96 10c-2,3 8,-7 0,0zm2794 -97c25,21 46,31 76,49 -23,-8 -86,-39 -85,-42l9 -7zm335 0c33,-48 62,-50 95,-111l22 54c7,23 11,37 12,65 -90,23 -155,223 -181,332 -40,160 -37,292 -47,473 -14,-219 9,-476 96,-671 41,-92 25,-52 3,-142zm-17 -528c17,38 -3,-4 8,23 7,15 1,2 9,19 62,122 60,116 60,285l-8 0c0,-98 5,-148 -40,-215 -1,85 67,204 -34,282 -100,77 -197,-44 -242,-82 10,50 148,193 261,101 16,-12 21,-18 32,-37 5,-9 6,-12 11,-22 1,-3 5,-10 6,-12l6 -11c-9,81 -102,166 -229,91 -88,-52 -118,-117 -162,-206 -16,93 192,343 342,237 131,-91 91,-318 -1,-432l-19 -21zm-254 306l-3 -3c-2,1 3,2 3,3zm275 -235c-2,3 8,-9 0,0zm-338 -221c-58,-48 -106,-227 8,-227 130,0 133,202 179,231 32,20 49,28 78,52 75,61 172,216 172,357 0,210 -156,297 -320,173 -34,-25 -63,-52 -90,-89 -28,-38 -46,-65 -66,-114 -37,-89 -62,-218 -11,-310 16,-29 37,-46 50,-73zm293 99c-9,10 16,-15 0,0zm-33 -33c-8,8 14,-15 0,0zm-191 -258c16,14 -22,-19 0,0zm-23 -14c-4,4 11,-12 0,0zm-153 446c-9,-28 -10,-77 4,-100l-4 100zm-24 -4c-9,-25 -10,-32 1,-61l-1 61zm-50 -62c14,22 10,42 1,62l-1 -62zm34 -23c0,8 1,16 0,24 -5,35 -2,10 -9,22l9 -46zm-1579 -71c-29,-44 -48,-39 -86,-102 -62,-101 -34,-83 -34,-137l9 0c0,46 48,119 79,152 8,8 13,13 22,21 3,3 21,14 20,17l-9 6c-29,-38 -94,-88 -112,-162 -10,14 -14,-4 -5,29 17,56 64,117 110,157 17,15 23,6 6,19zm1691 -68c-1,1 -2,-2 -2,-3l2 3zm-95 -195c1,42 -7,23 -15,65l15 -65zm-35 15c12,18 10,19 10,48l-10 -48zm-1217 269c-544,0 -558,-569 -155,-670 108,-27 306,-16 438,-16 200,0 400,-22 547,54 309,158 210,574 -129,626 -125,20 -524,6 -701,6zm1035 -435c0,-2 2,-5 3,-4 12,18 -3,5 -4,5 0,0 1,-1 1,-1zm-2391 3256c-11,-80 -111,-126 -184,-72 -56,40 -16,55 -73,81 -36,16 -59,27 -66,79 -15,98 34,433 54,528 72,333 183,593 356,824 315,423 883,728 1638,727 391,0 727,-74 987,-205 188,-94 371,-221 501,-389 23,-30 39,-51 63,-82 59,-74 64,-87 106,-160 138,-241 212,-481 256,-769 17,-112 50,-441 30,-549 -9,-49 -38,-68 -75,-79 -46,-14 -16,12 -46,-31 -32,-46 -98,-69 -156,-38 -30,15 -46,70 -70,75 -89,19 -168,-16 -227,115l-11 24c0,-1 -1,4 -3,6 -34,-26 -84,-38 -119,-60l0 -42c102,-33 119,-14 120,-146 0,-121 -55,-88 -137,-127l0 -120c60,-1 85,-23 128,-43 -6,58 -37,144 -6,194 32,51 94,53 150,25 23,-12 21,-4 28,-24 12,-37 11,-76 5,-114 -7,-49 -22,-139 -38,-173 50,-27 101,-89 68,-173 -13,-32 -35,-46 -58,-69 -16,-15 -13,-15 -80,-15 -8,-31 -26,-49 -49,-69 16,-37 51,-122 57,-170 187,2 248,65 332,-123 46,-102 83,-259 97,-398 15,-151 20,-324 -9,-467 -41,-196 -94,-207 -291,-207 -14,-45 -75,-220 -77,-256 -21,-376 -247,-405 -274,-470 -34,-80 -71,-249 -211,-209 -58,17 -67,63 -68,139l-4 -74c-1,-1 -3,0 -3,0 -46,4 1,-17 -52,6 -5,3 -11,-23 -28,31 -9,27 -6,70 -2,98 5,31 28,63 41,90 49,-6 53,-23 95,-29 -23,33 -48,68 -54,127 -10,-19 -2,-51 -17,-20 -8,16 -7,31 -10,53l-4 -30c1,-9 5,-23 7,-31 -15,17 -13,8 -17,39 -21,-33 -6,-23 -18,-19l-8 43c-1,-2 -2,-5 -3,-6 0,-1 -2,-4 -3,-5l-11 -25c-9,66 -22,88 -18,173 10,210 146,304 190,367 -73,-26 -161,-174 -191,-263 -45,-135 -38,-250 46,-360l-45 -68c-117,-103 -81,-11 -126,-199 -9,-38 -18,-71 -21,-116 35,5 97,47 130,68 96,62 29,36 147,33 -6,-21 -4,-13 -17,-26 -75,-74 -265,-138 -321,-192 -123,-117 -190,-167 -383,-166 -183,1 -366,0 -549,0 -406,0 -388,161 -477,210 -53,29 -3,-8 -45,22l-223 141c-1,2 -4,7 -5,8 -15,16 1,3 -19,16 -30,19 -15,2 -26,16 -1,2 6,-2 -11,15 -10,10 -7,6 -19,15 -42,34 -101,94 -139,135 -129,144 -369,517 -375,719 -46,0 -194,4 -226,32 0,0 -1,2 -1,2 -106,134 -99,457 -80,612 18,139 72,513 210,560 28,9 171,-11 225,-11 14,58 50,125 61,187 -52,18 -52,47 -89,61 -30,12 2,-13 -10,-1 10,46 -23,41 -39,69 -17,29 5,56 12,88 3,18 4,59 13,91 3,11 13,39 14,47 5,43 -59,75 7,121 44,32 50,4 84,18 23,9 39,33 75,45 20,7 68,5 87,16 -25,20 -105,36 -146,60l0 174c41,24 108,42 112,56 0,23 4,53 -6,72 0,2 -22,20 -22,21 -21,11 -5,1 -19,6 -20,8 -42,38 -73,46 -10,-39 -57,-92 -83,-114 -38,-34 -103,-18 -166,-22z"/>
   <path class="fil0" d="M1571 2159c46,62 191,187 255,258 27,30 29,45 87,86 9,-6 16,-10 26,-20l323 -323 -300 -297c-16,-16 -23,-28 -36,-44 -35,8 -5,0 -32,14l-16 9c-6,6 2,8 -34,43l-273 274z"/>
   <path class="fil0" d="M2316 2107l3 3c0,-1 -5,-2 -3,-3zm-373 -315c17,27 172,165 207,218 0,1 1,3 1,3l66 62c26,42 -30,-13 12,13l55 53c56,-46 20,5 49,-44 8,-12 11,-15 23,-27 25,-25 72,-65 90,-90 59,-79 -18,-203 -59,-249 -44,-47 -144,-130 -250,-109 -45,9 -72,47 -102,78 -33,34 -58,48 -92,92z"/>
   <path class="fil0" d="M1940 2538c105,95 190,252 395,49 39,-39 114,-127 98,-220 -13,-82 -104,-122 -143,-182 -63,53 -115,115 -176,173 -14,14 -29,26 -43,42 -10,10 -12,13 -22,21 -30,25 -100,84 -109,117z"/>
   <path class="fil0" d="M1544 2133l345 -340c-12,-28 -114,-143 -175,-152 -160,-25 -356,187 -312,335 7,24 18,32 29,49l113 108z"/>
   <path class="fil0" d="M1431 377c-23,31 -2,-9 2,-10 24,-7 -2,10 -2,10zm-1 -128c0,0 0,-1 0,-1l2 -9c26,-6 -2,10 -2,10zm-44 -6c21,23 5,36 -3,57 -35,92 18,150 42,195 28,53 -17,0 10,19 5,4 13,1 28,18 50,56 216,94 292,79l-18 -279c-55,2 -112,-2 -167,1 -73,4 -84,24 -129,34 31,-36 75,-44 135,-53 23,-4 135,-17 157,-10l-3 -105c-40,15 -110,4 -160,6 -71,2 -79,18 -129,34 28,-37 100,-54 164,-59 151,-12 125,4 137,-35 1,-4 5,-36 6,-40 -88,-11 -167,9 -224,37 -137,67 -92,127 -138,101z"/>
   <path class="fil0" d="M2507 365l-18 -15c25,7 7,1 30,13 33,18 21,12 9,22 -9,-11 -10,-11 -21,-20zm6 -127c-8,-21 -3,-1 7,-1 1,0 11,-1 11,2 4,14 -12,15 -18,-1zm-45 -73c-2,3 -8,-15 3,-3 15,15 -3,3 -3,3zm-250 139c94,17 126,0 274,38 -29,15 -225,-8 -278,-10l-19 275c11,5 -1,3 20,6l56 -1c24,-4 54,-9 73,-13 140,-34 293,-168 197,-341 -1,-1 -2,-3 -2,-4 -37,-72 -30,-33 -63,-82l-71 -38c-69,-31 -131,-31 -208,-31 24,103 -2,64 125,79 65,8 153,11 184,48 -94,-19 -182,-25 -293,-25l5 99z"/>
   <path class="fil0" d="M1139 4299c-69,-36 -93,-172 -62,-267 43,-133 133,-123 228,-124 -23,32 -42,37 -62,76 -37,73 -37,208 1,274l17 43c-32,-59 -43,-66 -61,-153 -10,20 -5,45 1,67 18,72 38,33 17,64 -32,-71 -40,-113 -50,-133 -1,29 1,47 7,70 19,74 39,32 17,63l-49 -131c-3,33 -3,56 11,88l4 31c-28,-54 -29,-97 -43,-119 -1,24 -1,40 4,63l18 42c1,-2 5,3 5,6l-10 9c-27,-59 -37,-111 -42,-120 -21,55 27,119 49,151zm157 120c27,-14 263,-31 205,-327l14 24c48,129 -49,310 -219,303zm51 -109c-142,0 -135,-377 -9,-377 160,0 142,377 9,377zm-309 -223c0,244 68,180 123,279 113,203 381,80 408,-135 25,-196 -101,-234 -131,-268 -26,-29 -33,-46 -75,-62 -169,-65 -325,29 -325,186z"/>
   <path class="fil0" d="M1772 614l405 -2c3,-30 -9,-103 -13,-136 -5,-46 0,-94 -4,-143l-371 2 -17 279z"/>
   <path class="fil0" d="M334 2240l9 37c-22,-25 -19,-13 -9,-37zm-59 -695c1,-21 12,-3 4,-1 0,0 -6,21 -4,1zm-70 -86l-18 41c4,-28 4,-24 18,-41zm-94 222c0,202 8,463 97,630 113,212 185,-128 166,-243l-74 -3 28 177c-35,-30 -47,-134 -62,-177 -51,2 -58,-11 -56,28 5,76 41,182 56,247 -68,-82 -92,-290 -107,-391 -7,-55 -14,-170 -9,-231 7,-90 20,-145 30,-219 17,34 -1,76 0,122 0,48 2,97 -2,145l62 -7c0,-47 3,-71 8,-112 3,-20 4,-34 8,-52l15 -38c1,-1 2,-3 4,-5l-9 196 79 -6c-9,-80 -58,-248 -104,-284 -94,-74 -130,140 -130,223z"/>
   <path class="fil0" d="M3716 2336l2 3c0,-1 -3,-2 -2,-3zm-64 -74c9,23 -14,-1 -5,-9 16,-15 5,9 5,9zm136 -786c-8,-1 5,-21 5,0 0,24 -5,0 -5,0zm-175 589c-1,87 6,169 28,236 27,83 77,104 127,29 102,-153 156,-726 57,-860 -41,-54 -85,-19 -110,32 -34,72 -66,155 -75,239l76 8c0,-73 -6,-148 -7,-211 32,59 30,135 38,214 28,14 27,18 59,10 7,-119 -8,-177 -13,-277 10,12 -1,-9 13,21l18 76c6,38 12,77 12,116 2,167 -21,526 -111,637 6,-54 55,-185 49,-269l-54 3 -61 161c1,-14 32,-123 25,-163l-71 -2z"/>
   <path class="fil0" d="M880 576c19,23 -13,43 -69,103 -26,28 -18,9 -26,24 0,0 -2,6 -9,17 -12,20 -3,5 -14,20l-88 127c-34,54 -181,329 -162,396 16,-35 29,-74 44,-112 18,-45 29,-73 50,-113 25,-48 81,-159 118,-194 21,-21 -1,8 7,-9 43,-87 65,-86 70,-93 0,-1 18,-33 28,-46 28,-38 49,-53 78,-84 14,-15 23,-27 37,-40 22,-21 26,-32 45,-12 5,25 8,6 -17,31 -121,124 -202,205 -285,374 -26,53 -55,96 -60,150 21,-19 37,-66 50,-91 36,-69 13,-8 43,-76 47,-103 274,-367 386,-445l31 -22c9,-8 8,-7 15,-15 -106,33 -125,120 -169,84 0,-22 8,-24 28,-39 22,-17 29,-21 50,-36 30,-22 61,-40 93,-62 -59,10 -170,93 -217,136 -24,22 -31,49 -57,27z"/>
   <path class="fil0" d="M882 2158c89,-19 24,-145 163,-101 46,15 40,4 80,-10 6,12 9,22 15,34 -42,29 -38,6 -57,54 -40,108 -104,50 -140,51 -42,0 -55,37 -61,-28zm147 -170c-42,0 -53,-4 -91,20l-34 25c-1,1 -3,2 -4,2 -17,10 -2,-23 -18,36l-26 109c9,47 50,43 59,45 21,8 90,75 184,2 33,-26 38,-52 47,-99 6,-35 15,-28 18,-47 7,-55 -55,-59 -79,-71 -18,-10 -30,-22 -56,-22z"/>
   <polygon class="fil0" points="1793,299 2158,297 2154,205 1793,203 "/>
   <path class="fil0" d="M1792 171l362 -2c10,-15 15,-43 17,-66l-395 -1c5,21 9,51 16,69z"/>
   <path class="fil0" d="M2600 4232l9 0c55,1 60,-85 60,-128 0,-81 -83,-144 -121,-52 -24,55 -18,180 52,180z"/>
   <path class="fil0" d="M1943 5573c26,19 -12,-1 -12,-1 -11,-22 12,1 12,1zm65 -1c-39,0 -74,-37 -70,-85 3,-40 35,-71 77,-68 97,6 95,153 -7,153zm-52 -33c25,15 46,36 87,17 29,-14 36,-38 32,-85 -22,43 0,75 -76,75 -31,0 -28,-21 -33,-17l-10 10zm138 7c5,-3 14,-14 18,-16l-18 16zm-179 17c3,6 10,16 13,20 17,29 -5,11 40,28 64,23 65,-4 104,8 -5,-26 102,-63 49,-163l-10 47c-1,-11 0,-21 -1,-33 -3,-16 -7,-27 -19,-40 -86,-102 -241,28 -162,118 -6,20 -4,9 -14,15z"/>
   <path class="fil0" d="M1347 4231c63,0 109,-107 33,-219 -146,-13 -97,219 -33,219z"/>
   <path class="fil0" d="M3757 4248c28,-12 80,-42 85,-63 0,-3 2,-3 4,-5 -12,37 -40,65 -89,68zm-50 -7c-36,-10 -51,-26 -60,-60l46 48c4,4 9,10 9,8 1,-1 4,3 5,4zm103 -51c-24,-14 11,-4 -7,-40 -39,95 -100,24 -122,5 12,85 103,56 108,39 1,-3 3,-6 5,-6l8 10c-96,61 -163,-32 -118,-99 26,-40 162,-62 126,91zm-180 -17c18,106 139,104 180,88 1,-1 48,-49 52,-97 -22,-10 11,-9 -10,4 -24,14 12,8 -6,5 -2,-83 -25,-137 -113,-129 -65,5 -98,60 -86,129 -10,3 -2,0 -8,-1 -8,0 2,-4 -9,1z"/>
   <path class="fil0" d="M3716 1775l-86 0c0,55 -12,116 -17,171 -9,102 -6,88 78,102l25 -273z"/>
   <path class="fil0" d="M297 2040c4,1 6,2 16,2 20,1 49,0 59,-16 13,-20 -17,-226 -21,-251l-78 0c3,61 9,221 24,265z"/>
   <path class="fil0" d="M351 4256c1,-2 3,2 3,3 0,1 1,2 1,2 0,0 -20,13 -4,-5zm-27 -5c-1,-5 13,-4 27,-28 7,-11 10,-22 16,-33 -1,44 -14,40 -33,68l-10 -7zm-67 -156c77,0 100,72 79,101 -16,22 -2,4 -10,-14 -47,66 -90,51 -127,-7 1,32 14,57 52,63 42,6 50,-18 75,-31 -4,13 -8,25 -34,35 -114,47 -147,-147 -35,-147zm-94 112c-1,-26 12,0 5,0 -1,0 -5,29 -5,0zm-2 -17c0,0 -2,-2 -2,-1 -4,21 6,-10 -14,1 20,91 89,127 166,96 60,-24 48,-19 53,-35l12 -43c0,-14 -14,-71 -24,-87 -13,-22 -39,-46 -71,-51 -84,-12 -116,45 -120,120z"/>
   <path class="fil0" d="M1649 4757c31,-4 54,-17 76,-30l3 7c13,16 -20,5 45,-35 200,-127 377,-347 403,-598 -44,86 -23,172 -204,386 -54,64 -83,89 -150,149 -94,84 -117,78 -173,121z"/>
   <path class="fil0" d="M205 2060c107,-14 35,30 35,-285l-58 1 23 284z"/>
   <path class="fil0" d="M3802 1773l-43 2c-16,21 -35,282 -35,282l59 -2 19 -282z"/>
   <path class="fil0" d="M3055 487c0,73 80,104 100,55 30,-73 -100,-148 -100,-55z"/>
   <path class="fil0" d="M677 3041c6,-14 4,-12 8,-21l5 -12c1,-2 2,-4 3,-6l-8 -7c-12,-51 -39,-69 -92,-50 -23,65 15,115 84,96z"/>
   <path class="fil0" d="M416 1981c-11,40 -12,109 -13,153 -1,51 -27,241 -59,273 -1,0 -3,1 -4,2l-6 2c-1,0 -2,1 -2,2 -4,5 12,6 -10,24 -12,10 -32,6 -46,10 20,14 -10,11 24,11 121,0 125,-372 116,-477z"/>
   <path class="fil0" d="M3577 1985c-38,100 17,552 135,460 -43,-3 -58,-9 -78,-51 -51,-109 -49,-285 -57,-409z"/>
   <path class="fil0" d="M962 2125c12,27 12,33 42,41 50,-4 68,-49 35,-76 -32,-28 -66,-1 -77,35z"/>
   <path class="fil0" d="M1466 1647c0,-16 -3,-15 -7,-26 -47,-23 -88,-1 -65,47 13,28 72,34 72,-21z"/>
   <path class="fil0" d="M1417 2678c55,0 71,-21 49,-66 -14,-7 -47,-21 -63,4 -19,28 4,49 14,62z"/>
   <path class="fil0" d="M2394 2670c35,19 41,20 76,0l3 -33c-25,-28 -23,-18 -49,-38 16,18 -5,5 -29,30l-1 41z"/>
   <path class="fil0" d="M2405 1627l18 41c81,17 92,-65 14,-72l-32 31z"/>
   <path class="fil0" d="M2016 649c-126,-57 -104,94 -2,31l2 -31z"/>
   <path class="fil0" d="M2651 401c26,-1 33,-12 44,-25 -15,-47 -66,-49 -89,-9 8,14 0,36 45,34z"/>
   <path class="fil0" d="M1339 376c-8,-29 -18,-35 -52,-35 -20,0 -34,15 -34,35 0,24 56,38 86,0z"/>
   <path class="fil0" d="M1931 43c-2,70 61,46 85,25 -9,-46 -46,-40 -85,-25z"/>
   <path class="fil0" d="M2943 2057l4 164c9,-10 14,13 14,-37l-5 -178c-8,14 -13,29 -13,51z"/>
  </g>
 </g>
</svg>
