<!-- Generated by IcoMoon.io -->
      <svg version="1.1" xmlns="http://www.w3.org/2000/svg" xmlns:xlink="http://www.w3.org/1999/xlink" x="0px" y="0px"
        width="460px" height="100px" viewBox="91.43 -87.5 960 200" overflow="visible"
        enable-background="new 91.43 -87.5 960 200" xml:space="preserve">
        <path id="wave1" stroke-miterlimit="140" d="M0,24.5c28.57,0,28.57-24,57.141-24c28.57,0,28.57,24,57.141,24
                c28.572,0,28.572-24,57.142-24c28.57,0,28.57,24,57.141,24c28.572,0,28.572-24,57.143-24c28.569,0,28.569,24,57.138,24
                c28.57,0,28.57-24,57.14-24c28.57,0,28.57,24,57.139,24s28.569-24,57.14-24c28.57,0,28.57,24,57.14,24c28.572,0,28.572-24,57.145-24
                s28.572,24,57.145,24c28.571,0,28.571-24,57.143-24c28.572,0,28.572,24,57.145,24c28.573,0,28.573-24,57.146-24
                c28.571,0,28.571,24,57.143,24c28.573,0,28.573-24,57.146-24c28.573,0,28.573,24,57.146,24c28.574,0,28.574-24,57.149-24
                s28.575,24,57.149,24" />
      </svg>
